# xmcd
#
# Track frame offsets:
# 180
# 9728
# 22572
# 40543
# 52283
# 70283
# 84860
# 95087
# 106455
# 117459
# 134073
# 145422
# 157543
#
# Disc length: 2262 seconds
#
#
# Revision: 0
# Processed by: cddbd v1.5PL3 Copyright (c) Steve Scherf et al.
# Submitted via: FreeRIP 2.70 
#
DISCID=a908d40d
DTITLE=Bearfoot Bluegrass - Only Time Knows
DYEAR=2001
DGENRE=Bluegrass
TTITLE0=True Life Blues
TTITLE1=Boston Boy
TTITLE2=When You Say Nothing At All
TTITLE3=Wheel Hoss
TTITLE4=Lonesome City
TTITLE5=Sittin' Alone in the Moonlight
TTITLE6=Telluride
TTITLE7=Only Time Knows
TTITLE8=Everyday I Have to Cry
TTITLE9=In the Palm of Your Hand
TTITLE10=I'll Be True
TTITLE11=Cry, Cry, Darlin'
TTITLE12=Opus 38
EXTD=
EXTT0=
EXTT1=
EXTT2=
EXTT3=
EXTT4=
EXTT5=
EXTT6=
EXTT7=
EXTT8=
EXTT9=
EXTT10=
EXTT11=
EXTT12=
PLAYORDER=
